<svg xmlns="http://www.w3.org/2000/svg" viewBox="0 0 64 64">
  <!-- brand mark: the Instrument Serif "S" from the Scribattle wordmark, traced to a path -->
  <rect width="64" height="64" rx="14" fill="#1c1917"/>
  <path fill="#f7f5f1" d="M30.6468200270636 52.0Q29.564276048714483 52.0 28.23815967523681 51.783491204330176Q26.912043301759134 51.56698240866035 25.74830852503383 51.242219215155615Q24.58457374830853 50.91745602165088 23.935047361299056 50.538565629228685Q23.556156968876863 50.32205683355886 23.366711772665766 50.07848443843031Q23.17726657645467 49.834912043301756 23.17726657645467 49.23951285520974L22.90663058186739 40.741542625169146Q22.90663058186739 39.658998646820024 23.61028416779432 39.658998646820024Q24.205683355886336 39.658998646820024 24.42219215155616 40.63328822733423L24.90933694181326 42.690121786197565Q26.749661705006766 50.43031123139377 31.783491204330176 50.43031123139377Q34.48985115020298 50.43031123139377 36.086603518267935 48.617050067658994Q37.68335588633288 46.80378890392422 37.68335588633288 43.50202976995941Q37.68335588633288 40.3085250338295 36.03247631935048 37.54803788903924Q34.38159675236807 34.78755074424899 30.755074424898513 32.081190798376184Q26.749661705006766 29.212449255751014 24.90933694181326 26.53315290933694Q23.069012178619758 23.853856562922868 23.069012178619758 20.82273342354533Q23.069012178619758 16.817320703653586 25.856562922868743 14.408660351826793Q28.64411366711773 12.0 32.97428958051421 12.0Q34.59810554803789 12.0 36.11366711772666 12.378890392422193Q37.62922868741543 12.757780784844385 38.60351826792964 13.461434370771315Q38.92828146143437 13.677943166441139 39.11772665764547 13.948579161028416Q39.307171853856566 14.219215155615693 39.307171853856566 14.652232746955342L39.469553450608934 22.825439783491202Q39.469553450608934 23.745602165087956 38.765899864682005 23.745602165087956Q38.2787550744249 23.745602165087956 38.062246278755076 22.98782138024357L37.68335588633288 21.63464140730717Q36.49255751014885 17.46684709066306 35.22056833558864 15.545331529093371Q33.94857916102842 13.623815967523683 31.56698240866035 13.623815967523683Q29.239512855209746 13.623815967523683 27.859269282814616 15.13937753721245Q26.47902571041949 16.654939106901217 26.47902571041949 19.41542625169147Q26.47902571041949 21.742895805142084 27.994587280108256 23.853856562922868Q29.510148849797027 25.964817320703652 33.299052774018946 28.99594046008119Q37.35859269282815 32.29769959404601 39.225981055480375 35.35588633288227Q41.09336941813261 38.41407307171853 41.09336941813261 41.878213802435724Q41.09336941813261 44.90933694181326 39.74018944519621 47.18267929634641Q38.38700947225981 49.45602165087956 36.03247631935048 50.72801082543978Q33.67794316644114 52.0 30.6468200270636 52.0Z"/>
</svg>
